# AST/ASF file generated using VICON BodyLanguage
# -----------------------------------------------
:version 1.10
:name VICON
:units
  mass 1.0
  length 0.45
  angle deg
:documentation
   .ast/.asf automatically generated from VICON data using
   VICON BodyBuilder and BodyLanguage model FoxedUp or BRILLIANT.MOD
:root
   order TX TY TZ RX RY RZ
   axis XYZ
   position 0 0 0  
   orientation 0 0 0 
:bonedata
  begin
     id 1 
     name lhipjoint
     direction 0.711131 -0.61297 0.344326 
     length 2.29162 
     axis 0 0 0  XYZ
  end
  begin
     id 2 
     name lfemur
     direction 0.34202 -0.939693 0  
     length 6.71424  
     axis 0 0 20  XYZ
    dof rx ry rz
    limits (-160.0 20.0)
           (-70.0 70.0)
           (-60.0 70.0)
  end
  begin
     id 3 
     name ltibia
     direction 0.34202 -0.939693 0   
     length 6.7087   
     axis 0 0 20   XYZ
    dof rx
    limits (-10.0 170.0)
  end
  begin
     id 4 
     name lfoot
     direction 0.0230374 -0.0632947 0.997729   
     length 1.56743   
     axis -90 7.62852e-016 20   XYZ
    dof rx rz
    limits (-45.0 90.0)
           (-70.0 20.0)
  end
  begin
     id 5 
     name ltoes
     direction 1.53585e-011 -4.21885e-011 1   
     length 0.802914   
     axis -90 7.62852e-016 20   XYZ
    dof rx
    limits (-90.0 20.0)
  end
  begin
     id 6 
     name rhipjoint
     direction -0.733192 -0.592884 0.333043   
     length 2.36925  
     axis 0 0 0  XYZ 
  end
  begin
     id 7 
     name rfemur
     direction -0.34202 -0.939693 0   
     length 6.67027   
     axis 0 0 -20   XYZ
    dof rx ry rz
    limits (-160.0 20.0)
           (-70.0 70.0)
           (-70.0 60.0)
  end
  begin
     id 8 
     name rtibia
     direction -0.34202 -0.939693 0   
     length 6.6862   
     axis 0 0 -20   XYZ
    dof rx
    limits (-10.0 170.0)
 end
 begin
     id 9 
     name rfoot
     direction -0.0949739 -0.260939 0.960672   
     length 1.67698  
     axis -90 -7.62852e-016 -20   XYZ
    dof rx rz
    limits (-45.0 90.0)
           (-20.0 70.0)
  end
  begin
     id 10 
     name rtoes
     direction -1.5353e-011 -4.21868e-011 1   
     length 0.846298   
     axis -90 -7.62852e-016 -20   XYZ
    dof rx
    limits (-90.0 20.0)
  end
  begin
     id 11 
     name lowerback
     direction -0.0206828 0.999785 -0.00109866   
     length 2.04382   
     axis 0 0 0   XYZ
    dof rx ry rz
    limits (-20.0 45.0)
           (-30.0 30.0)
           (-30.0 30.0)
  end
  begin
     id 12 
     name upperback
     direction -0.0105003 0.999727 -0.0208904   
     length 2.04538   
     axis 0 0 0   XYZ
    dof rx ry rz
    limits (-20.0 45.0)
           (-30.0 30.0)
           (-30.0 30.0)
  end
  begin
     id 13 
     name thorax
     direction -0.000416255 0.999808 -0.0196023   
     length 2.0399   
     axis 0 0 0   XYZ
    dof rx ry rz
    limits (-20.0 45.0)
           (-30.0 30.0)
           (-30.0 30.0)
  end
  begin
     id 14 
     name lowerneck
     direction 0.0627861 0.989205 0.13241   
     length 1.46207   
     axis 0 0 0   XYZ
    dof rx ry rz
    limits (-20.0 45.0)
           (-30.0 30.0)
           (-30.0 30.0)
  end
  begin
     id 15 
     name upperneck
     direction 0.00627179 0.994526 0.104303   
     length 1.41419   
     axis 0 0 0   XYZ
    dof rx ry rz
    limits (-20.0 45.0)
           (-30.0 30.0)
           (-30.0 30.0)
  end
  begin
     id 16
     name head
     direction -0.00443838 0.999688 0.0245968  
     length 1.50718  
     axis 0 0 0   XYZ
    dof rx ry rz
    limits (-20.0 45.0)
           (-30.0 30.0)
           (-30.0 30.0)
  end
  begin
     id 17 
     name lclavicle
     direction 0.758742 0.650995 -0.0227258  
     length 2.86888  
     axis 0 0 0   XYZ
    dof ry rz
    limits (-20.0 10.0)
           (0.0 20.0)
  end
  begin
     id 18 
     name lhumerus
     direction 1 -4.48962e-011 1.06664e-027   
     length 4.65776   
     axis -180 -30 -90   XYZ
    dof rx ry rz
    limits (-60.0 90.0)
           (-90.0 90.0)
           (-90.0 90.0)
  end
  begin
     id 19
     name lradius
     direction 1 -4.48968e-011 1.40404e-026   
     length 3.55539   
     axis -180 -30 -90   XYZ
    dof rx
    limits (-10.0 170.0)
  end
  begin
     id 20
     name lwrist
     direction 1 -4.48976e-011 3.32647e-026   
     length 1.77769   
     axis -2.20186e-014 90 90   XYZ
    dof ry
    limits (-180.0 0.0)
 end
  begin
     id 21 
     name lhand
     direction 1 -4.48982e-011 6.65293e-026   
     length 0.707264   
     axis -4.24514e-014 90 90   XYZ
    dof rx rz
    limits (-90.0 90.0)
           (-45.0 45.0)
  end
  begin
     id 22 
     name lfingers
     direction 1 -4.48966e-011 1.33059e-025   
     length 0.570215   
     axis -8.49028e-014 90 90   XYZ
    dof rx
    limits (0.0 90.0)
  end
  begin
     id 23
     name lthumb
     direction 0.707107 -6.3493e-011 0.707107   
     length 0.818718   
     axis -90 45 2.85299e-015   XYZ
    dof rx rz
    limits (-45.0 45.0)
           (-45.0 45.0)
  end
  begin
     id 24 
     name rclavicle
     direction -0.870343 0.482028 -0.100759   
     length 3.2251  
     axis 0 0 0   XYZ 
    dof ry rz
    limits (-10.0 20.0)
           (-20.0 0.0)
  end
  begin
     id 25 
     name rhumerus
     direction -1 -4.48974e-011 -9.45849e-028  
     length 4.71925   
     axis -180 30 90   XYZ
    dof rx ry rz
    limits (-90.0 60.0)
           (-90.0 90.0)
           (-90.0 90.0)
  end
  begin
     id 26 
     name rradius
     direction -1 -4.48965e-011 1.17607e-026   
     length 3.5699   
     axis -180 30 90   XYZ
    dof rx
    limits (-10.0 170.0)
  end
  begin
     id 27 
     name rwrist
     direction -1 -4.48968e-011 3.32647e-026   
     length 1.78495   
     axis -2.20186e-014 -90 -90   XYZ
    dof ry
    limits (-180.0 0.0)
  end
  begin
     id 28
     name rhand
     direction -1 -4.48995e-011 6.65293e-026   
     length 0.507757   
     axis -4.24514e-014 -90 -90   XYZ
    dof rx rz
    limits (-90.0 90.0)
           (-45.0 45.0)
  end
  begin
     id 29
     name rfingers
     direction -1 -4.48864e-011 1.33059e-025   
     length 0.409367   
     axis -8.49028e-014 -90 -90   XYZ
    dof rx
    limits (0.0 90.0)
  end
  begin
     id 30
     name rthumb
     direction -0.707107 -6.3494e-011 0.707107   
     length 0.587771   
     axis -90 -45 -2.85299e-015   XYZ
    dof rx rz
    limits (-45.0 45.0)
           (-45.0 45.0)
  end
:hierarchy
  begin
    root lhipjoint rhipjoint lowerback
    lhipjoint lfemur
    lfemur ltibia
    ltibia lfoot
    lfoot ltoes
    rhipjoint rfemur
    rfemur rtibia
    rtibia rfoot
    rfoot rtoes
    lowerback upperback
    upperback thorax
    thorax lowerneck lclavicle rclavicle
    lowerneck upperneck
    upperneck head
    lclavicle lhumerus
    lhumerus lradius
    lradius lwrist
    lwrist lhand lthumb
    lhand lfingers
    rclavicle rhumerus
    rhumerus rradius
    rradius rwrist
    rwrist rhand rthumb
    rhand rfingers
  end

#!OML:ASF E:\Steps\Project 1\Capture day 1\Session 2\Subject.ASF
:FULLY-SPECIFIED
:DEGREES
1
root 16.2775 16.3783 20.7766 -154.559 -2.57476 173.763
lowerback -31.4571 -3.09835 -11.9248
upperback -0.675671 -0.290023 -1.3652
thorax 15.6066 -1.25904 4.68872
lowerneck -5.67565 -1.51081 -1.63295
upperneck -0.0578278 -2.07943 4.44161
head 1.01257 -1.01519 1.61165
rclavicle -1.38155e-014 -4.41302e-014
rhumerus -34.3502 -21.9963 -77.3001
rradius 27.2153
rwrist -1.02842
rhand -6.93005 -57.334
rfingers 7.12502
rthumb 18.9381 -86.432
lclavicle -1.38155e-014 -4.41302e-014
lhumerus -28.5152 7.07821 79.9228
lradius 20.1716
lwrist -6.58971
lhand -24.5966 -12.8904
lfingers 7.12502
lthumb 1.90114 17.0808
rfemur -22.8259 6.10552 14.1179
rtibia 7.10322
rfoot -17.9828 -2.68344
rtoes -18.055
lfemur -23.4143 -11.3918 -26.4763
ltibia 9.71066
lfoot -7.65815 -3.84087
ltoes -32.1557
2
root 16.2786 16.3787 20.777 -154.579 -2.5567 173.772
lowerback -31.4395 -3.1071 -11.9218
upperback -0.682044 -0.307532 -1.3516
thorax 15.5944 -1.2659 4.69535
lowerneck -5.6748 -1.51255 -1.63447
upperneck 0.000361651 -2.08142 4.42818
head 1.03072 -1.01497 1.60766
rclavicle 4.96962e-017 -2.18663e-014
rhumerus -34.3067 -21.7875 -77.4143
rradius 27.3823
rwrist -1.07905
rhand -7.58148 -59.3101
rfingers 7.12502
rthumb 18.3115 -88.4682
lclavicle 4.96962e-017 -2.18663e-014
lhumerus -28.4392 6.8613 80.1409
lradius 20.3454
lwrist -6.29805
lhand -24.3292 -13.0922
lfingers 7.12502
lthumb 2.15939 16.8766
rfemur -22.8305 6.11193 14.1356
rtibia 7.13448
rfoot -18.0032 -2.67748
rtoes -18.6414
lfemur -23.3751 -11.4637 -26.4437
ltibia 9.713
lfoot -7.69224 -3.77399
ltoes -31.6963
3
root 16.2792 16.3799 20.7769 -154.596 -2.56357 173.823
lowerback -31.4649 -3.11565 -11.8664
upperback -0.652575 -0.329994 -1.32715
thorax 15.6467 -1.27371 4.68411
lowerneck -5.66844 -1.49871 -1.67753
upperneck -0.0206142 -2.06147 4.47729
head 1.02387 -1.00508 1.63157
rclavicle -1.88845e-015 1.59028e-014
rhumerus -34.1325 -21.6763 -77.5176
rradius 27.4225
rwrist -1.07776
rhand -8.18514 -61.0057
rfingers 7.12502
rthumb 17.7307 90.2173
lclavicle -1.88845e-015 1.59028e-014
lhumerus -28.2428 6.46366 80.4229
lradius 20.4401
lwrist -5.76305
lhand -24.2028 -13.465
lfingers 7.12502
lthumb 2.28153 16.5025
rfemur -22.8315 6.14691 14.1949
rtibia 7.16132
rfoot -18.0463 -2.68629
rtoes -18.8129
lfemur -23.3549 -11.4086 -26.3904
ltibia 9.76013
lfoot -7.77774 -3.81768
ltoes -31.7198
4
root 16.2807 16.3813 20.776 -154.662 -2.65031 173.917
lowerback -31.4491 -3.13051 -11.7664
upperback -0.597471 -0.375434 -1.28488
thorax 15.7172 -1.28743 4.66154
lowerneck -5.72762 -1.45711 -1.74609
upperneck -0.0275631 -2.00216 4.50253
head 1.03145 -0.974923 1.65323
rclavicle -2.43511e-015 -5.80451e-014
rhumerus -33.8295 -21.6658 -77.641
rradius 27.3453
rwrist -1.22448
rhand -8.7673 -62.5941
rfingers 7.12502
rthumb 17.1704 91.8554
lclavicle -2.43511e-015 -5.80451e-014
lhumerus -27.9951 6.21122 80.6694
lradius 20.5046
lwrist -5.42991
lhand -24.1688 -13.5168
lfingers 7.12502
lthumb 2.31431 16.4504
rfemur -22.6868 6.2184 14.3281
rtibia 7.04513
rfoot -17.9511 -2.76343
rtoes -18.6775
lfemur -23.2925 -11.3597 -26.2689
ltibia 9.77952
lfoot -7.74233 -3.88728
ltoes -31.6276
5
root 16.2818 16.3827 20.7751 -154.728 -2.73108 173.998
lowerback -31.3815 -3.13311 -11.6789
upperback -0.593583 -0.417459 -1.25703
thorax 15.7015 -1.29688 4.63148
lowerneck -5.72026 -1.44049 -1.77753
upperneck -0.007177 -1.97897 4.53551
head 1.03694 -0.962633 1.67012
rclavicle -2.08724e-015 3.61788e-014
rhumerus -33.7256 -21.4936 -77.8148
rradius 27.5547
rwrist -1.32865
rhand -9.3233 -64.3749
rfingers 7.12502
rthumb 16.6352 93.682
lclavicle -2.08724e-015 3.61788e-014
lhumerus -27.8789 6.10393 80.821
lradius 20.6415
lwrist -5.43246
lhand -24.1941 -13.4639
lfingers 7.12502
lthumb 2.28988 16.5036
rfemur -22.5787 6.27242 14.4476
rtibia 7.00122
rfoot -17.9719 -2.8128
rtoes -18.4849
lfemur -23.2167 -11.4606 -26.1269
ltibia 9.75145
lfoot -7.66747 -3.80691
ltoes -30.8259
6
root 16.2817 16.3807 20.7735 -154.736 -2.72115 174.035
lowerback -31.3711 -3.1154 -11.6167
upperback -0.632838 -0.425831 -1.26544
thorax 15.6518 -1.2941 4.58592
lowerneck -5.69875 -1.46394 -1.70433
upperneck 0.102529 -2.0158 4.51207
head 1.06774 -0.979211 1.64893
rclavicle 6.01324e-015 -3.97569e-014
rhumerus -33.8032 -21.2029 -77.9648
rradius 27.8726
rwrist -1.45196
rhand -9.84511 -66.0448
rfingers 7.12502
rthumb 16.1328 95.3933
lclavicle 6.01324e-015 -3.97569e-014
lhumerus -27.9257 5.84582 80.9843
lradius 20.9124
lwrist -5.2927
lhand -24.1186 -13.456
lfingers 7.12502
lthumb 2.36281 16.5107
rfemur -22.5828 6.27838 14.4948
rtibia 7.03005
rfoot -18.1018 -2.78835
rtoes -18.5729
lfemur -23.1913 -11.5089 -26.0708
ltibia 9.70182
lfoot -7.70108 -3.71863
ltoes -31.0365
7
root 16.281 16.3781 20.7735 -154.706 -2.63776 174.05
lowerback -31.4273 -3.08626 -11.598
upperback -0.6487 -0.392219 -1.26675
thorax 15.6524 -1.27946 4.58709
lowerneck -5.72134 -1.49421 -1.6584
upperneck 0.182449 -2.05857 4.46343
head 1.09687 -0.999178 1.62409
rclavicle -5.86415e-015 4.81059e-014
rhumerus -33.738 -20.7262 -78.1869
rradius 28.1031
rwrist -1.99928
rhand -10.3653 -67.7252
rfingers 7.12502
rthumb 15.6318 97.1137
lclavicle -5.86415e-015 4.81059e-014
lhumerus -27.8937 5.53881 81.2215
lradius 21.1284
lwrist -4.92513
lhand -23.8275 -13.2822
lfingers 7.12502
lthumb 2.64393 16.6811
rfemur -22.6478 6.3119 14.4853
rtibia 7.04872
rfoot -18.0715 -2.77269
rtoes -19.0012
lfemur -23.2232 -11.4615 -26.0745
ltibia 9.67672
lfoot -7.74492 -3.67607
ltoes -31.2862
8
root 16.2811 16.3797 20.776 -154.662 -2.62683 174.113
lowerback -31.4819 -3.07933 -11.5348
upperback -0.643695 -0.400917 -1.23452
thorax 15.686 -1.28084 4.58509
lowerneck -5.71388 -1.49003 -1.74958
upperneck 0.113483 -2.04799 4.53141
head 1.07596 -0.994671 1.66223
rclavicle -7.30534e-015 -1.59028e-014
rhumerus -33.5311 -20.4146 -78.4054
rradius 28.282
rwrist -2.37684
rhand -10.8398 -69.4721
rfingers 7.12502
rthumb 15.1748 98.8957
lclavicle -7.30534e-015 -1.59028e-014
lhumerus -27.8141 5.31096 81.4551
lradius 21.3011
lwrist -4.77028
lhand -23.617 -13.265
lfingers 7.12502
lthumb 2.84726 16.6958
rfemur -22.7364 6.39142 14.5334
rtibia 7.08995
rfoot -18.0271 -2.82517
rtoes -18.5784
lfemur -23.3061 -11.4602 -25.9852
ltibia 9.69316
lfoot -7.73499 -3.62669
ltoes -31.9441
9
root 16.2846 16.3799 20.7793 -154.599 -2.71081 174.164
lowerback -31.5007 -3.11682 -11.5106
upperback -0.659683 -0.463048 -1.20432
thorax 15.686 -1.30687 4.57912
lowerneck -5.70619 -1.48569 -1.78101
upperneck 0.086563 -2.04204 4.58957
head 1.06742 -0.991929 1.68667
rclavicle -3.57812e-015 -8.34896e-015
rhumerus -33.4353 -20.406 -78.5033
rradius 28.4443
rwrist -2.31315
rhand -11.2555 -71.0199
rfingers 7.12502
rthumb 14.7744 100.473
lclavicle -3.57812e-015 -8.34896e-015
lhumerus -27.8233 4.99424 81.6572
lradius 21.5818
lwrist -4.66116
lhand -23.533 -13.3156
lfingers 7.12502
lthumb 2.92839 16.644
rfemur -22.8166 6.41009 14.6215
rtibia 7.12447
rfoot -18.0522 -2.88579
rtoes -17.9663
lfemur -23.4205 -11.4342 -25.8882
ltibia 9.74335
lfoot -7.71816 -3.68616
ltoes -32.1863
10
root 16.2878 16.3775 20.78 -154.605 -2.77796 174.188
lowerback -31.4466 -3.14192 -11.5215
upperback -0.680695 -0.504586 -1.18331
thorax 15.6436 -1.3236 4.59206
lowerneck -5.72364 -1.52369 -1.67076
upperneck 0.179639 -2.0983 4.49355
head 1.09842 -1.01888 1.63482
rclavicle 1.18277e-014 6.36111e-015
rhumerus -33.4085 -20.3312 -78.5891
rradius 28.5973
rwrist -2.33651
rhand -11.6559 -72.4773
rfingers 7.12502
rthumb 14.3885 101.959
lclavicle 1.18277e-014 6.36111e-015
lhumerus -27.8397 4.665 81.8481
lradius 21.8537
lwrist -4.37507
lhand -23.4199 -13.4519
lfingers 7.12502
lthumb 3.03763 16.5062
rfemur -22.7676 6.40404 14.6994
rtibia 7.06939
rfoot -17.9814 -2.92148
rtoes -18.286
lfemur -23.4168 -11.4398 -25.8392
ltibia 9.75574
lfoot -7.73735 -3.76328
ltoes -31.8713
